<svg xmlns:xlink="http://www.w3.org/1999/xlink" class="nav-logo w-[238rem] md:w-[451rem] lg:w-[845rem]" viewBox="0 0 867 456" fill="none" xmlns="http://www.w3.org/2000/svg" data-v-4ff042c4="" style="translate: none; rotate: none; scale: none; transform-origin: 50% 50%; opacity: 1; transform: translate(0px, 0px); width: 601.172px;" width="867"  height="456" ><path d="M560.463 443.925L561.921 163.694C561.975 153.142 568.341 151.586 579.509 151.639L612.444 151.816C614.755 151.816 616.623 151.144 618.188 150.013C622.064 147.751 624.714 143.579 624.732 138.771L624.91 104.286C624.91 104.003 624.91 103.756 624.856 103.491C624.856 101.759 624.927 100.415 624.927 99.6198C624.945 94.7943 623.86 92.1606 619.521 91.3829L593.913 58.8419L590.855 54.4937C588.614 51.6303 587.778 54.9356 584.346 56.2083L536.545 73.7602C533.753 74.7678 531.708 77.207 531.174 80.1235L529.271 90.7289L351.99 89.8098C344.023 89.2442 343.49 91.3476 341.32 101.9L314.45 266.425C314.272 265.701 314.076 264.958 313.898 264.234C313.383 262.183 312.849 260.115 312.333 258.065C311.533 254.883 310.715 251.719 309.915 248.538C308.884 244.454 307.834 240.354 306.803 236.271C305.594 231.48 304.367 226.673 303.157 221.883C301.806 216.58 300.472 211.277 299.121 205.974C297.698 200.371 296.275 194.768 294.853 189.165C293.412 183.473 291.954 177.782 290.513 172.09C289.091 166.505 287.686 160.919 286.263 155.334C284.93 150.066 283.596 144.799 282.262 139.532C281.053 134.794 279.861 130.04 278.652 125.303C277.638 121.29 276.607 117.26 275.593 113.248C274.811 110.155 274.028 107.079 273.246 103.986C272.748 102.041 272.25 100.079 271.752 98.135C271.148 95.7665 270.596 93.1505 268.711 91.4536C267.093 89.9865 265.03 88.8023 263.27 87.4943C261.545 86.2216 259.82 84.9666 258.095 83.694C253.435 80.2826 248.794 76.8712 244.135 73.4598C239.138 69.7832 234.123 66.1243 229.126 62.4478C225.267 59.6197 221.39 56.7739 217.531 53.9458C216.251 53.009 214.988 52.0722 213.708 51.153L184.543 121.98L226.938 121.237L188.651 265.789L163.488 100.998C162.421 95.6074 161.763 92.4258 160.305 90.6405C159.984 90.2517 159.611 89.9158 159.184 89.6684C155.734 87.5473 152.338 85.3909 148.959 83.1814L143.855 79.823C141.934 78.5504 140.014 77.2954 138.093 76.0227L131.923 71.9573C129.824 70.5786 127.708 69.1822 125.609 67.8035C123.511 66.4248 121.466 65.0815 119.403 63.7028C117.447 62.4124 115.491 61.1221 113.535 59.8495C111.792 58.7005 110.031 57.5339 108.289 56.385L103.896 53.4862C102.794 52.7615 101.709 52.0368 100.606 51.3298L98.6856 50.0571C98.5611 49.9687 98.4189 49.8804 98.2944 49.792L86.1484 112.063L102.278 115.864C115.633 198.71 140.032 354.981 155.13 436.377L99.5037 438.109L98.2944 442.228L162.492 452.763C163.47 452.957 164.608 453.063 165.942 453.063C178.159 453.646 191.425 453.187 208.426 453.275C214.792 453.311 216.411 450.659 218.047 441.185L251.23 285.144L283.133 440.478L250.608 436.66L234.105 443.059C236.203 443.447 238.32 443.836 240.418 444.225C245.362 445.144 250.306 446.063 255.249 446.983C260.975 448.043 266.702 449.104 272.428 450.164C276.874 450.995 281.32 451.808 285.765 452.639C290.994 453.611 296.151 453.735 301.486 453.805C306.554 453.876 311.604 453.982 316.673 454.053C322.879 454.141 329.103 454.177 335.309 453.947C341.142 453.982 343.294 452.409 344.361 447.124C358.214 378.401 381.35 241.273 396.751 150.791L483.96 151.233C493.509 151.286 498.275 154.998 498.222 162.916L496.763 441.344L496.479 441.132L456.627 444.208C460.219 445.056 463.793 445.887 467.386 446.735C474.232 448.344 481.079 449.952 487.943 451.578C492.229 452.586 496.532 453.876 500.871 454.619C505.406 455.396 510.243 454.813 514.831 454.831C519.135 454.848 523.438 454.884 527.742 454.901C535.424 454.937 543.107 454.972 550.789 455.025C552.052 455.025 553.314 455.025 554.595 455.043C559.894 455.078 560.463 449.28 560.481 443.978L560.463 443.925Z" fill="#2A2A2A" data-v-4ff042c4=""></path><path d="M772.244 220.119C778.681 229.328 785.119 238.519 791.556 247.728C793.157 250.009 793.459 252.907 792.428 255.47C789.547 262.505 786.702 269.54 783.821 276.557L781.669 279.598C776.903 283.822 772.155 288.047 767.371 292.236C766.109 293.349 765.077 294.781 764.668 296.425C762.57 305.157 746.209 302.452 735.326 301.569C734.472 301.498 733.672 301.303 732.872 301.003L713.31 293.102C712.581 292.819 711.834 292.642 711.069 292.572C699.759 291.158 691.792 280.587 693.82 269.24L696.843 252.359C698.603 242.532 705.485 234.348 714.928 230.883L750.032 217.998C752.931 216.937 759.12 215.329 764.099 215.205C767.549 215.117 770.697 217.043 772.226 220.119H772.244Z" fill="#2A2A2A" data-v-4ff042c4=""></path><path d="M733.975 151.942L756.791 152.066L799.791 152.808L822.607 152.932C827.906 152.967 830.058 149.803 830.627 144.536C830.912 138.579 830.947 133.011 830.912 127.39C830.965 126.966 830.983 126.542 831.001 126.118C831.036 120.532 831.054 114.929 831.09 109.344C831.09 106.515 831.267 103.67 830.787 100.859C829.969 95.91 826.679 91.4204 824.421 87.0368C821.362 81.1331 818.286 75.2294 815.28 69.2904C813.466 65.6845 811.617 62.0964 809.839 58.4729C808.932 56.6169 805.073 56.2634 803.205 55.7331L798.191 54.2837C795.15 50.4481 793.585 56.2811 788.979 57.9779L744.699 74.2219C740.946 75.6006 738.19 78.8529 737.496 82.7769L735.878 91.7916L663.162 91.4204C658.379 91.4027 654.662 93.5061 654.626 98.7735L652.848 440.586L623.684 444.386C629.765 446.207 635.847 448.045 641.929 449.866C648.349 451.793 654.715 454.02 661.348 455.169C667.999 456.335 674.686 455.911 681.39 455.858C687.277 455.84 693.18 455.77 699.067 455.752C699.92 455.752 700.774 455.752 701.61 455.752C717.01 455.823 716.477 452.128 716.548 438.942L717.188 317.033C717.259 301.726 751.759 306.109 762.891 305.65C768.724 305.155 772.458 303.052 775.144 298.314C779.429 290.413 793.407 258.827 793.442 251.951C793.478 245.623 784.444 245.588 780.194 245.57L737.176 245.34C714.36 245.217 717.615 230.475 717.721 211.456C717.793 197.209 716.868 171.88 718.522 158.164C719.624 150.245 727.058 151.889 733.958 151.924L733.975 151.942Z" fill="#2A2A2A" data-v-4ff042c4=""></path><path d="M580.306 54.956L300.185 53.5066C291.738 52.9056 291.168 55.1328 288.857 66.3215L260.403 240.622L214.665 60.3648C213.011 54.7616 210.753 53.0824 203.444 53.0294L185.998 52.941C178.689 52.9056 176.431 54.5672 174.706 60.1527L127.082 239.932L100.443 65.3493C98.2381 54.1429 97.7046 51.9158 89.2575 52.4284L41.4384 52.1809C33.5782 52.1456 32.4223 55.4863 32.3867 61.6374C46.0087 145.014 76.507 341.974 93.4544 430.971C94.5569 436.574 96.7798 438.254 102.968 438.289C115.915 438.908 129.963 438.43 147.96 438.519C154.718 438.554 156.425 435.761 158.15 425.704L193.325 260.401L227.327 426.057C228.963 436.133 230.634 438.943 237.392 438.978C255.389 439.067 269.437 439.685 282.384 439.208C288.572 439.243 290.831 437.582 291.969 431.979C306.658 359.172 331.145 213.896 347.506 118.041L439.89 118.518C450.026 118.571 455.059 122.513 455.005 130.891L453.423 433.357C453.423 436.698 455.646 440.092 459.025 440.11L514.704 440.392C520.341 440.428 520.928 434.277 520.946 428.673L522.493 131.792C522.546 120.604 529.322 118.96 541.112 119.013L575.985 119.19C578.421 119.19 580.413 118.482 582.049 117.281C586.193 114.877 588.967 110.475 589.002 105.367L589.198 68.8315C589.198 68.5486 589.18 68.2835 589.144 67.983C589.18 66.1624 589.216 64.7307 589.216 63.8823C589.251 57.7311 587.58 54.9207 580.271 54.8853H580.324L580.306 54.956Z" fill="#C53B3A" data-v-4ff042c4=""></path><path d="M269.016 443.696C264.642 443.678 260.036 443.608 255.145 443.502C249.561 443.396 243.782 443.325 237.415 443.29C226.657 443.237 224.629 436.131 223.1 426.851L193.295 281.628L162.441 426.533C160.841 435.813 158.707 442.901 147.948 442.848C141.582 442.812 135.802 442.848 130.218 442.883C120.064 442.954 111.297 443.007 102.85 442.618C94.6338 442.583 90.6682 439.401 89.1744 431.8C76.5305 365.428 56.1509 237.81 41.2663 144.623C36.038 111.888 31.5211 83.6068 28.0533 62.3429L28 61.6182C28.0356 54.7777 29.6538 47.8135 41.4263 47.8665L89.0854 48.114C101.303 47.4069 102.476 53.5051 104.664 64.5347V64.7115L128.191 218.667L170.533 58.8962C172.88 51.2602 176.917 48.5912 186.004 48.6266L203.449 48.7149C212.519 48.768 216.538 51.4724 218.796 59.1436L218.85 59.3204L259.467 219.356L284.594 65.4715C286.871 54.4949 288.098 48.3968 300.315 49.2099L580.294 50.6593C592.262 50.7123 593.596 58.2952 593.578 63.9867C593.578 64.8175 593.578 66.2139 593.507 67.9815C593.507 68.2996 593.561 68.6355 593.561 68.9359L593.365 105.472C593.329 111.8 589.933 117.721 584.456 120.973C581.984 122.705 579.138 123.589 575.973 123.572L541.1 123.395C528.1 123.324 526.856 125.675 526.82 131.861L525.273 428.742C525.255 432.72 525.184 444.81 514.656 444.757L458.977 444.474C453.464 444.439 449.018 439.472 449.054 433.409L450.637 130.942C450.654 127.071 449.854 122.935 439.842 122.9L351.157 122.44L347.138 146.002C331.293 239.1 309.598 366.612 296.225 432.879C294.66 440.497 290.659 443.59 282.443 443.572C278.086 443.731 273.622 443.784 268.945 443.749L268.999 443.696H269.016ZM193.438 239.188L231.654 425.384C233.165 434.628 234.001 434.646 237.433 434.664C243.835 434.699 249.65 434.805 255.252 434.876C265.3 435.053 273.996 435.194 282.247 434.876H282.443C286.871 434.894 287.102 434.346 287.76 431.111C301.097 364.986 322.775 237.544 338.62 144.517L343.866 113.708L439.913 114.203C456.914 114.292 459.386 124.72 459.35 130.925L457.768 433.391C457.768 434.611 458.479 435.795 459.03 435.795L514.71 436.078C515.208 436.078 516.541 436.078 516.577 428.672L518.124 131.791C518.213 114.628 532.546 114.698 541.118 114.751L575.991 114.928C577.342 114.928 578.48 114.592 579.458 113.868L579.832 113.62C582.802 111.888 584.616 108.83 584.633 105.419L584.829 68.8829V68.5648V68.1582V68.0168C584.865 66.2139 584.9 64.8175 584.9 63.9691C584.918 59.8683 584.74 59.338 580.276 59.3204L299.87 57.871C298.163 57.7296 296.047 57.6942 295.638 58.2068C294.749 59.3204 293.948 63.1206 293.13 67.133L261.316 261.937L210.456 61.5298C209.46 58.2068 209.193 57.3937 203.414 57.376L185.969 57.2877C180.189 57.2523 179.904 58.0477 178.891 61.3707L125.932 261.23L96.1632 66.1078C95.3807 62.0778 94.616 58.2775 93.7447 57.1463C93.3534 56.6513 91.2372 56.6513 89.53 56.7574H89.2455L41.4263 56.5099C36.9983 56.4923 36.7671 56.8281 36.7494 61.3C40.2171 82.5286 44.7162 110.686 49.8912 143.245C64.7402 236.36 85.0842 363.926 97.7459 430.157C98.3861 433.409 98.5995 433.939 103.028 433.957H103.223C111.475 434.346 120.135 434.293 130.218 434.222C135.82 434.169 141.635 434.151 148.037 434.187C151.505 434.204 152.34 434.204 153.923 424.978V424.836L193.455 239.188H193.384H193.438Z" fill="#2A2A2A" data-v-4ff042c4=""></path><path d="M807.486 74.0043C807.54 64.5125 808.713 56.1165 795.767 56.0458L629.832 55.1974C624.781 55.1797 620.815 57.4068 620.798 62.9747L618.895 429.728C618.859 436.992 621.651 440.369 628.96 440.97C639.079 441.57 660.454 441.129 670.591 441.182C686.898 441.27 686.365 437.346 686.453 423.365L687.129 294.208C687.218 278 723.745 282.648 735.553 282.171C741.742 281.658 745.689 279.431 748.535 274.411C753.069 266.033 767.883 232.591 767.918 225.308C767.954 218.592 758.404 218.538 753.905 218.521L708.327 218.291C684.142 218.167 687.592 202.524 687.698 182.409C687.769 167.314 686.791 140.483 688.552 125.953C689.726 117.557 697.586 119.272 704.895 119.325L729.08 119.449L774.658 120.226L798.844 120.35C804.481 120.385 806.722 117.045 807.344 111.441C807.966 98.5735 807.468 87.4025 807.54 73.9866H807.522L807.486 74.0043Z" fill="#0C9367" data-v-4ff042c4=""></path><path d="M642.007 445.622C636.885 445.604 632.137 445.498 628.687 445.304C619.084 444.526 614.496 439.435 614.531 429.731L616.434 62.9428C616.47 55.572 621.734 50.835 629.843 50.8703L795.778 51.7187C801.238 51.7541 805.203 53.0975 807.906 55.8372C812.014 60.0086 811.925 66.0714 811.837 71.9397V74.0078C811.801 78.5505 811.854 82.881 811.89 87.0525C811.979 95.2717 812.05 103.049 811.641 111.639V111.887C810.503 122.475 804.03 124.684 798.801 124.666L774.616 124.543L729.002 123.765L704.87 123.641C703.768 123.641 702.665 123.606 701.545 123.553C693.649 123.27 693.205 123.977 692.831 126.54C691.568 136.88 691.782 154.362 691.942 168.431C691.995 173.575 692.049 178.418 692.013 182.431C692.013 184.728 691.942 186.973 691.906 189.13C691.675 198.445 691.497 206.487 695.214 210.305C697.597 212.744 701.883 213.929 708.32 213.964L753.899 214.194C758.451 214.211 772.304 214.282 772.233 225.312C772.18 234.114 756.175 269.377 752.334 276.43C748.83 282.634 743.62 285.78 735.884 286.434H735.706C733.395 286.54 730.3 286.452 726.761 286.364C716.127 286.063 698.326 285.568 692.849 290.853C691.889 291.79 691.426 292.815 691.426 294.194L690.75 424.694C690.715 432.506 690.679 437.685 686.945 441.397C683.477 444.826 677.875 445.498 670.566 445.463C667.543 445.463 663.506 445.463 659.078 445.498C653.69 445.551 647.608 445.586 642.042 445.569V445.622H642.007ZM629.807 59.5314C625.148 59.5137 625.148 61.7055 625.13 63.0135L623.227 429.767C623.192 434.91 624.401 436.271 629.292 436.678C636.12 437.084 648.8 436.996 658.972 436.925C663.453 436.89 667.525 436.872 670.566 436.89C676.275 436.925 679.725 436.395 680.81 435.352C682.019 434.168 682.019 430.014 682.054 424.764V423.421L682.73 294.265C682.748 290.57 684.153 287.3 686.803 284.773C694.912 276.978 713.46 277.49 726.993 277.862C730.336 277.95 733.235 278.038 735.244 277.95C740.099 277.526 742.677 276.006 744.723 272.382C750.004 262.661 763.519 231.056 763.537 225.383C763.537 223.792 760.283 222.961 753.828 222.926L708.249 222.696C699.357 222.643 693.027 220.592 688.954 216.421C682.677 209.987 682.908 200.265 683.193 189.006C683.246 186.885 683.281 184.711 683.299 182.466C683.317 178.524 683.264 173.699 683.228 168.59C683.068 154.273 682.872 136.474 684.206 125.497C685.753 114.379 695.819 114.768 701.865 114.998C702.879 115.033 703.892 115.086 704.906 115.086L729.091 115.21L774.705 115.988L798.837 116.111C800.74 116.111 802.411 116.129 802.963 111.18C803.354 102.89 803.301 95.2717 803.212 87.2115C803.158 82.9871 803.123 78.6388 803.158 74.0255C803.158 73.3008 803.158 72.5761 803.158 71.869C803.229 67.5738 803.283 63.5261 801.7 61.9353C800.473 60.698 797.788 60.4329 795.725 60.4329L629.789 59.5844V59.5314H629.807Z" fill="#2A2A2A" data-v-4ff042c4=""></path><path d="M809.483 301.457C803.063 352.84 755.617 355.951 755.617 355.951C755.617 355.951 803.063 359.062 809.483 410.445C815.902 359.062 863.348 355.951 863.348 355.951C863.348 355.951 815.902 352.84 809.483 301.457Z" fill="#F1B333" data-v-4ff042c4=""></path><path d="M809.501 414.033C807.669 414.033 806.122 412.672 805.909 410.869C799.934 363.162 757.218 359.662 755.387 359.539C753.484 359.415 752.008 357.824 752.008 355.933C752.008 354.042 753.484 352.469 755.387 352.345C757.201 352.221 799.934 348.721 805.891 301.015C806.122 299.212 807.652 297.851 809.483 297.851C811.315 297.851 812.862 299.212 813.075 301.015C819.051 348.721 861.766 352.221 863.598 352.345C865.5 352.469 866.976 354.059 866.976 355.951C866.976 357.842 865.5 359.415 863.598 359.539C861.784 359.662 819.051 363.162 813.093 410.869C812.862 412.672 811.333 414.033 809.501 414.033ZM771.107 355.933C783.947 360.546 801.463 370.957 809.501 394.183C817.539 370.957 835.056 360.546 847.895 355.933C835.056 351.32 817.539 340.909 809.501 317.683C801.463 340.909 783.947 351.32 771.107 355.933Z" fill="#2A2A2A" data-v-4ff042c4=""></path><path d="M34.6234 259.041C30.9244 288.63 3.60938 290.415 3.60938 290.415C3.60938 290.415 30.9244 292.201 34.6234 321.79C38.3223 292.201 65.6373 290.415 65.6373 290.415C65.6373 290.415 38.3223 288.63 34.6234 259.041Z" fill="#F1B333" data-v-4ff042c4=""></path><path d="M34.6418 325.394C32.8101 325.394 31.2629 324.033 31.0495 322.23C27.7774 296.07 4.37468 294.073 3.37882 294.002C1.47601 293.878 0 292.305 0 290.396C0 288.505 1.47601 286.932 3.37882 286.808C4.35689 286.737 27.7596 284.758 31.0318 258.58C31.2629 256.777 32.7923 255.416 34.624 255.416C36.4557 255.416 38.0028 256.777 38.2162 258.58C41.4883 284.74 64.8911 286.737 65.8869 286.808C67.7897 286.949 69.2657 288.523 69.2657 290.414C69.2657 292.305 67.7897 293.878 65.8869 294.002C64.9088 294.073 41.5061 296.052 38.234 322.23C38.0028 324.033 36.4734 325.394 34.6418 325.394ZM16.5384 290.414C22.9226 293.366 30.2315 298.704 34.6418 308.302C39.0698 298.704 46.3609 293.366 52.7451 290.414C46.3609 287.462 39.052 282.124 34.6418 272.526C30.2315 282.124 22.9226 287.462 16.5384 290.414Z" fill="#2A2A2A" data-v-4ff042c4=""></path><path d="M499.454 3.58691C494.813 40.6529 460.598 42.8977 460.598 42.8977C460.598 42.8977 494.813 45.1425 499.454 82.2084C504.095 45.1425 538.31 42.8977 538.31 42.8977C538.31 42.8977 504.095 40.6529 499.454 3.58691Z" fill="#F1B333" data-v-4ff042c4=""></path><path d="M499.469 85.8155C497.637 85.8155 496.09 84.4545 495.876 82.6516C491.679 49.1031 461.644 46.5931 460.363 46.5048C458.46 46.3634 456.984 44.7902 456.984 42.8989C456.984 41.0076 458.46 39.4345 460.363 39.3108C461.626 39.2224 491.662 36.7124 495.859 3.16395C496.09 1.36103 497.619 0 499.451 0C501.282 0 502.83 1.36103 503.043 3.16395C507.24 36.7124 537.276 39.2224 538.556 39.3108C540.459 39.4522 541.935 41.0253 541.935 42.9166C541.935 44.8079 540.459 46.381 538.556 46.5048C537.294 46.5931 507.258 49.1031 503.061 82.6516C502.83 84.4545 501.3 85.8155 499.469 85.8155ZM474.536 42.8989C483.179 46.4871 493.76 53.6104 499.469 67.6096C505.177 53.6104 515.758 46.4871 524.401 42.8989C515.758 39.3108 505.177 32.1875 499.469 18.1883C493.742 32.1875 483.179 39.3108 474.536 42.8989Z" fill="#2A2A2A" data-v-4ff042c4=""></path></svg>